<svg width="203" height="101" viewBox="0 0 203 101" fill="none" xmlns="http://www.w3.org/2000/svg">
<path d="M60.5545 29.3707C65.8146 29.6601 71.0958 30.0234 76.2759 31.2264C76.9211 31.388 77.5632 31.5699 78.195 31.8032C78.8106 32.0641 79.4788 32.2756 79.954 32.9109C80.062 33.0847 80.1069 33.3288 80.0345 33.5458C79.9603 33.7506 79.8308 33.8999 79.6955 34.0248C79.4167 34.2576 79.1154 34.4365 78.8047 34.574C78.1851 34.8599 77.5457 35.0627 76.9036 35.2446C74.3261 35.9314 71.701 36.2942 69.0787 36.6076C63.8253 37.1716 58.5522 37.405 53.2809 37.4911C48.0082 37.6241 42.7382 37.3118 37.4709 37.1502L45.3755 37.2812C48.0091 37.3658 50.6441 37.3464 53.2782 37.2878C58.545 37.1686 63.8127 36.899 69.0521 36.3044C71.6691 36.0094 74.2915 35.6629 76.851 34.998C77.4872 34.8227 78.1208 34.625 78.7238 34.3514C79.0269 34.2204 79.3142 34.0487 79.5664 33.8413C79.8277 33.636 79.9657 33.3094 79.7877 33.0388C79.405 32.5115 78.7332 32.2547 78.1347 32.007C77.5142 31.7732 76.8775 31.5887 76.2372 31.4241C73.6687 30.7847 71.049 30.4209 68.4316 30.105C65.8123 29.786 63.185 29.5526 60.5545 29.3707Z" fill="#C8C8C8"/>
<path d="M28.1223 36.4233C26.2584 36.2404 24.3973 36.0152 22.5447 35.7044C20.7029 35.3518 18.8324 35.0277 17.0971 34.1396C16.8845 34.0143 16.6808 33.867 16.4955 33.6765C16.3296 33.4732 16.179 33.1455 16.3089 32.8383C16.5854 32.3109 17.0562 32.1 17.4803 31.8778C18.358 31.4661 19.2739 31.2139 20.1903 30.9856C22.0267 30.5449 23.8843 30.2504 25.7436 29.9992C29.4685 29.5452 33.2074 29.292 36.9472 29.132C40.6875 28.9643 44.4309 28.9302 48.172 28.9995C44.4304 29.0499 40.6911 29.1554 36.9549 29.3353C33.2196 29.5284 29.4861 29.8178 25.7742 30.3018C23.918 30.5357 22.0641 30.8124 20.2362 31.2338C19.3261 31.4513 18.4137 31.6954 17.558 32.0883C17.1462 32.288 16.6916 32.5259 16.4816 32.928C16.3255 33.3611 16.7918 33.7442 17.1794 33.9603C18.8567 34.8397 20.7362 35.1872 22.5654 35.5582C24.4072 35.9169 26.2629 36.191 28.1223 36.4233Z" fill="#C8C8C8"/>
<path d="M33.1681 28.46C29.9796 28.6546 26.7942 28.9114 23.6179 29.2722C20.4437 29.6319 17.2669 30.0507 14.1494 30.8038C13.3724 30.9979 12.599 31.216 11.8445 31.4947C11.1161 31.7913 10.3013 32.0924 9.8242 32.7395C9.59757 33.0773 9.77384 33.4977 10.0913 33.7469C10.3984 34.0026 10.7464 34.2141 11.1143 34.3756C11.8445 34.7134 12.6116 34.958 13.3828 35.1761C16.4814 36.0046 19.6568 36.4463 22.8269 36.8265C29.1725 37.5846 35.5544 37.949 41.9355 38.1314C45.1267 38.221 48.3197 38.2633 51.5114 38.1798L61.0895 38.0672C54.7067 38.2088 48.3193 38.538 41.9319 38.3347C35.5459 38.1854 29.159 37.8572 22.7986 37.1296C19.6236 36.7312 16.4458 36.2726 13.3288 35.4227C12.5523 35.198 11.7793 34.9473 11.032 34.5978C10.657 34.4296 10.2945 34.211 9.96134 33.9293C9.79947 33.779 9.64613 33.5996 9.5598 33.3571C9.47661 33.1018 9.52967 32.8165 9.65827 32.6106C10.2284 31.856 11.0396 31.6002 11.7856 31.2904C12.5509 31.0122 13.3297 30.7967 14.1117 30.6061C20.3929 29.1881 26.7938 28.7815 33.1681 28.46Z" fill="#C8C8C8"/>
<path d="M72.422 37.2599C74.6766 36.9985 76.9276 36.6862 79.1624 36.2704C81.3824 35.8373 83.6608 35.4337 85.7044 34.3805C86.1743 34.1217 86.7571 33.6611 86.566 33.1067C86.3074 32.6053 85.7562 32.3159 85.2566 32.0678C84.2201 31.5837 83.1162 31.28 82.0137 31.0074C79.8009 30.4806 77.5558 30.129 75.3079 29.8294C70.8118 29.217 66.2896 28.8409 61.7643 28.5806C57.238 28.335 52.7069 28.1852 48.1743 28.1077C52.7073 28.0654 57.2425 28.1439 61.7728 28.3778C66.3027 28.6045 70.8307 28.9444 75.3399 29.5267C77.5913 29.8442 79.8396 30.2136 82.0613 30.7598C83.1693 31.0426 84.2772 31.3544 85.3357 31.8584C85.8474 32.1284 86.4145 32.3903 86.7396 33.0186C86.8906 33.3808 86.7117 33.7645 86.5129 34.0076C86.2895 34.2348 86.0435 34.4106 85.7863 34.5609C84.7476 35.126 83.636 35.4348 82.5312 35.7252C81.4228 36.0085 80.3041 36.2255 79.1826 36.4171C76.937 36.7845 74.6807 37.0479 72.422 37.2599Z" fill="#C8C8C8"/>
<path d="M142.323 29.6357C139.692 29.8008 137.063 30.0169 134.442 30.319C131.823 30.6176 129.202 30.9646 126.63 31.5872C125.989 31.7477 125.351 31.9286 124.73 32.1584C124.13 32.402 123.457 32.6542 123.072 33.179C122.893 33.4485 123.029 33.7757 123.289 33.9836C123.54 34.192 123.827 34.3657 124.129 34.4987C124.73 34.7764 125.363 34.9776 125.999 35.1575C128.555 35.8388 131.175 36.202 133.791 36.5144C139.027 37.1426 144.293 37.4463 149.559 37.6002C152.193 37.6756 154.828 37.7118 157.462 37.6445L165.367 37.5645C160.099 37.6919 154.828 37.9701 149.555 37.803C144.285 37.6827 139.013 37.4152 133.763 36.8176C131.142 36.4869 128.519 36.1073 125.945 35.4031C125.304 35.2176 124.665 35.0103 124.047 34.7208C123.737 34.5812 123.436 34.4003 123.159 34.1655C123.024 34.0401 122.896 33.8898 122.822 33.6845C122.751 33.4674 122.797 33.2233 122.906 33.0501C123.385 32.4178 124.054 32.2109 124.671 31.9536C125.303 31.7243 125.947 31.547 126.592 31.3895C131.779 30.2202 137.062 29.891 142.323 29.6357Z" fill="#C8C8C8"/>
<path d="M174.719 36.8984C176.58 36.6783 178.436 36.4159 180.28 36.0689C182.111 35.7102 183.992 35.3749 185.674 34.5066C186.063 34.2931 186.531 33.913 186.377 33.4784C186.169 33.0754 185.716 32.8349 185.305 32.6316C184.451 32.2336 183.54 31.984 182.631 31.7598C180.806 31.3267 178.953 31.0383 177.098 30.7922C173.388 30.2842 169.657 29.9708 165.922 29.7527C162.187 29.5494 158.448 29.4195 154.707 29.3446C158.449 29.2998 162.192 29.3583 165.931 29.5499C169.67 29.7344 173.407 30.0116 177.13 30.4895C178.988 30.7529 180.844 31.0597 182.679 31.5121C183.593 31.7465 184.508 32.0048 185.384 32.4222C185.807 32.6469 186.277 32.8609 186.55 33.3903C186.679 33.698 186.527 34.0246 186.36 34.2269C186.174 34.4165 185.969 34.5622 185.756 34.6865C184.016 35.5629 182.144 35.8747 180.3 36.2156C178.446 36.5147 176.584 36.7277 174.719 36.8984Z" fill="#C8C8C8"/>
<path d="M169.714 28.9026C176.086 29.2653 182.485 29.7137 188.759 31.172C189.54 31.3682 190.317 31.5888 191.081 31.8716C191.826 32.1865 192.636 32.4474 193.202 33.2055C193.33 33.4124 193.381 33.6977 193.297 33.9525C193.209 34.1945 193.055 34.3729 192.892 34.5222C192.558 34.8014 192.194 35.0179 191.818 35.184C191.069 35.5285 190.295 35.7741 189.517 35.9937C186.396 36.8237 183.216 37.2614 180.039 37.6395C173.675 38.3258 167.286 38.6122 160.9 38.7202C154.512 38.8827 148.127 38.5118 141.744 38.3289L151.322 38.5031C154.513 38.6076 157.706 38.5862 160.897 38.5174C167.279 38.3757 173.663 38.0532 180.013 37.3363C183.184 36.9761 186.362 36.5552 189.465 35.7471C190.236 35.5341 191.005 35.2941 191.737 34.9609C192.106 34.8019 192.455 34.5925 192.763 34.3392C193.082 34.0916 193.26 33.6728 193.036 33.3334C192.562 32.6828 191.749 32.3765 191.021 32.0754C190.268 31.7921 189.496 31.5689 188.72 31.3697C185.606 30.5962 182.432 30.157 179.259 29.7769C176.085 29.3953 172.901 29.1181 169.714 28.9026Z" fill="#C8C8C8"/>
<path d="M130.416 37.4478C128.159 37.2211 125.904 36.9429 123.66 36.5612C122.54 36.3625 121.422 36.1383 120.315 35.8479C119.211 35.5503 118.102 35.2344 117.066 34.6622C116.81 34.5104 116.564 34.3331 116.342 34.1043C116.145 33.8597 115.967 33.475 116.121 33.1138C116.449 32.4875 117.017 32.2292 117.53 31.9627C118.591 31.4659 119.701 31.1612 120.81 30.8851C123.034 30.3536 125.284 29.9985 127.538 29.6958C132.049 29.143 136.579 28.8322 141.11 28.635C145.641 28.4307 150.177 28.3817 154.71 28.4526C150.177 28.501 145.645 28.6217 141.118 28.8378C136.591 29.0686 132.067 29.4156 127.568 29.9985C125.319 30.2838 123.072 30.6211 120.857 31.1332C119.753 31.3987 118.647 31.6952 117.608 32.1726C117.107 32.4177 116.555 32.7031 116.293 33.2029C116.1 33.7563 116.68 34.2205 117.148 34.4823C119.187 35.5488 121.463 35.9671 123.681 36.415C125.914 36.8445 128.163 37.1722 130.416 37.4478Z" fill="#C8C8C8"/>
<path d="M37.2366 40.7003L88.0882 39.1401L88.0711 45.9724L37.9803 47.5351L37.2366 40.7003Z" fill="#4D4D4D"/>
<mask id="mask0_1_1546" style="mask-type:luminance" maskUnits="userSpaceOnUse" x="37" y="39" width="52" height="9">
<path d="M37.2363 39.1398H88.088V47.5353H37.2363V39.1398Z" fill="white"/>
</mask>
<g mask="url(#mask0_1_1546)">
<g opacity="0.100006">
<path d="M37.2368 40.7003L88.0885 39.1401L88.0714 45.9724L37.9805 47.5352L37.2368 40.7003Z" fill="black"/>
</g>
</g>
<path d="M57.3104 49.8448L41.175 50.3976L40.4209 47.4551L58.0794 46.9069L57.3104 49.8448Z" fill="#4D4D4D"/>
<mask id="mask1_1_1546" style="mask-type:luminance" maskUnits="userSpaceOnUse" x="40" y="46" width="19" height="5">
<path d="M40.4211 46.907H58.0792V50.3978H40.4211V46.907Z" fill="white"/>
</mask>
<g mask="url(#mask1_1_1546)">
<g opacity="0.199997">
<path d="M57.3102 49.8448L41.1747 50.3976L40.4207 47.4551L58.0791 46.9069L57.3102 49.8448Z" fill="black"/>
</g>
</g>
<path d="M51.8899 34.485L46.673 34.4682L46.6577 40.3797L51.8751 40.3965L51.8899 34.485Z" fill="#1A2E35"/>
<path d="M50.4055 34.4802L48.1572 34.473L48.1653 31.2202L50.4136 31.2278L50.4055 34.4802Z" fill="#2B454E"/>
<path d="M48.1643 31.6897L22.4723 31.6067L22.4709 32.2186L41.5503 34.0147L48.1616 32.7174L48.1643 31.6897Z" fill="#A8A8A8"/>
<path d="M50.4126 31.697L76.1046 31.7806L76.1028 32.3925L57.0145 34.0648L50.4099 32.7248L50.4126 31.697Z" fill="#A8A8A8"/>
<path d="M166.444 41.119L115.601 39.2292L115.584 46.0615L165.666 47.9488L166.444 41.119Z" fill="#4D4D4D"/>
<mask id="mask2_1_1546" style="mask-type:luminance" maskUnits="userSpaceOnUse" x="115" y="39" width="52" height="9">
<path d="M115.584 39.2293H166.444V47.9489H115.584V39.2293Z" fill="white"/>
</mask>
<g mask="url(#mask2_1_1546)">
<g opacity="0.100006">
<path d="M166.444 41.119L115.601 39.2292L115.584 46.0615L165.666 47.9488L166.444 41.119Z" fill="black"/>
</g>
</g>
<path d="M146.324 50.1333L162.457 50.7911L163.225 47.8532L145.57 47.1908L146.324 50.1333Z" fill="#4D4D4D"/>
<mask id="mask3_1_1546" style="mask-type:luminance" maskUnits="userSpaceOnUse" x="145" y="47" width="19" height="4">
<path d="M145.57 47.1908H163.225V50.7911H145.57V47.1908Z" fill="white"/>
</mask>
<g mask="url(#mask3_1_1546)">
<g opacity="0.199997">
<path d="M146.324 50.1334L162.456 50.7912L163.225 47.8532L145.57 47.1909L146.324 50.1334Z" fill="black"/>
</g>
</g>
<path d="M151.81 34.8234L157.027 34.8403L157.012 40.7518L151.795 40.735L151.81 34.8234Z" fill="#1A2E35"/>
<path d="M153.295 34.8282L155.543 34.8353L155.551 31.583L153.303 31.5754L153.295 34.8282Z" fill="#2B454E"/>
<path d="M155.55 32.0524L181.242 32.1354L181.24 32.7479L162.152 34.4202L155.547 33.0801L155.55 32.0524Z" fill="#A8A8A8"/>
<path d="M153.302 32.0452L127.61 31.9616L127.608 32.5735L146.688 34.3696L153.299 33.0729L153.302 32.0452Z" fill="#A8A8A8"/>
<mask id="mask4_1_1546" style="mask-type:luminance" maskUnits="userSpaceOnUse" x="41" y="43" width="122" height="2">
<path d="M41.0503 43.0758H162.358V44.102H41.0503V43.0758Z" fill="white"/>
</mask>
<g mask="url(#mask4_1_1546)">
<g opacity="0.199997">
<path d="M41.0505 43.589C81.3384 42.9078 122.07 42.9022 162.358 43.589C122.07 44.2754 81.3384 44.2703 41.0505 43.589Z" fill="black"/>
</g>
</g>
<path d="M172.664 20.3849L171.895 23.3254L155.758 23.2694L155.008 20.3289L172.664 20.3849Z" fill="#4D4D4D"/>
<mask id="mask5_1_1546" style="mask-type:luminance" maskUnits="userSpaceOnUse" x="155" y="20" width="18" height="4">
<path d="M155.008 20.3289H172.664V23.3254H155.008V20.3289Z" fill="white"/>
</mask>
<g mask="url(#mask5_1_1546)">
<g opacity="0.100006">
<path d="M172.664 20.385L171.894 23.3255L155.758 23.2695L155.008 20.329L172.664 20.385Z" fill="#4D4D4D"/>
</g>
</g>
<path d="M163.248 7.63624L165.496 7.64337L165.504 4.39053L163.256 4.3834L163.248 7.63624Z" fill="#4D4D4D"/>
<path d="M165.503 4.86032L191.195 4.94338L191.194 5.55583L172.106 7.2276L165.501 5.88805L165.503 4.86032Z" fill="#A8A8A8"/>
<path d="M99.0511 55.5448H103.949L104.71 58.4848H98.2898L99.0511 55.5448Z" fill="#4D4D4D"/>
<mask id="mask6_1_1546" style="mask-type:luminance" maskUnits="userSpaceOnUse" x="98" y="55" width="7" height="4">
<path d="M98.2898 55.545H104.71V58.485H98.2898V55.545Z" fill="white"/>
</mask>
<g mask="url(#mask6_1_1546)">
<g opacity="0.100006">
<path d="M99.0508 55.5446H103.948L104.71 58.4846H98.2896L99.0508 55.5446Z" fill="black"/>
</g>
</g>
<path d="M102.973 55.545H100.027V51.7031H102.973V55.545Z" fill="#4D4D4D"/>
<path d="M114.166 72.2434C114.166 80.1701 108.495 86.5958 101.5 86.5958C94.5048 86.5958 88.8342 80.1701 88.8342 72.2434C88.8342 64.3166 94.5048 57.8909 101.5 57.8909C108.495 57.8909 114.166 64.3166 114.166 72.2434Z" fill="#4D4D4D"/>
<mask id="mask7_1_1546" style="mask-type:luminance" maskUnits="userSpaceOnUse" x="92" y="62" width="19" height="21">
<path d="M92.5852 62.1419H110.414V82.3448H92.5852V62.1419Z" fill="white"/>
</mask>
<g mask="url(#mask7_1_1546)">
<g opacity="0.100006">
<path d="M110.414 72.2434C110.414 77.8223 106.423 82.3448 101.5 82.3448C96.5759 82.3448 92.5847 77.8223 92.5847 72.2434C92.5847 66.6646 96.5759 62.142 101.5 62.142C106.423 62.142 110.414 66.6646 110.414 72.2434Z" fill="black"/>
</g>
</g>
<path d="M108.473 72.2434C108.473 76.6075 105.351 80.1457 101.5 80.1457C97.6483 80.1457 94.5264 76.6075 94.5264 72.2434C94.5264 67.8793 97.6483 64.3411 101.5 64.3411C105.351 64.3411 108.473 67.8793 108.473 72.2434Z" fill="#1A2E35"/>
<path d="M103.812 72.2434C103.812 73.6905 102.777 74.8634 101.5 74.8634C100.223 74.8634 99.1875 73.6905 99.1875 72.2434C99.1875 70.7963 100.223 69.6234 101.5 69.6234C102.777 69.6234 103.812 70.7963 103.812 72.2434Z" fill="#2B454E"/>
<path d="M105.154 68.1842C104.817 68.8445 103.886 68.9495 103.075 68.4186C102.263 67.8876 101.878 66.9216 102.214 66.2612C102.551 65.6009 103.482 65.4959 104.293 66.0268C105.105 66.5578 105.49 67.5238 105.154 68.1842Z" fill="white"/>
<path d="M106.621 71.0747C106.29 71.2908 105.807 71.0437 105.541 70.5219C105.276 70.0006 105.328 69.4019 105.659 69.1859C105.989 68.9699 106.473 69.217 106.738 69.7387C107.004 70.2605 106.951 70.8587 106.621 71.0747Z" fill="white"/>
<path d="M110.149 63.9166C110.149 64.4877 109.74 64.9514 109.235 64.9514C108.731 64.9514 108.323 64.4877 108.323 63.9166C108.323 63.3454 108.731 62.8822 109.235 62.8822C109.74 62.8822 110.149 63.3454 110.149 63.9166Z" fill="#EB5A48"/>
<path d="M89.751 85.8513C96.8263 91.2462 106.578 91.2528 113.652 85.8513C106.813 91.7572 96.592 91.747 89.751 85.8513Z" fill="#1A2E35"/>
<path d="M86.0032 89.623C92.9216 94.9104 101.917 96.4543 109.893 93.6499C112.55 92.7342 115.088 91.3738 117.4 89.623C115.148 91.4945 112.63 92.9559 109.97 93.9306C101.976 96.9037 92.7746 95.3084 86.0032 89.623Z" fill="#1A2E35"/>
<path d="M81.3398 93.5769C91.7867 101.697 105.978 102.929 117.367 96.6172C118.996 95.7429 120.568 94.7259 122.063 93.5769C120.599 94.7768 119.052 95.8504 117.44 96.7849C106.1 103.397 91.6181 102.157 81.3398 93.5769Z" fill="#1A2E35"/>
<path d="M51.5345 1.27432C56.7946 1.56373 62.0758 1.92703 67.2563 3.13003C67.9011 3.29155 68.5436 3.47294 69.1745 3.70682C69.791 3.9677 70.4587 4.17915 70.934 4.81454C71.0424 4.98829 71.0869 5.23235 71.0145 5.44941C70.9403 5.65475 70.8108 5.80353 70.6755 5.92837C70.3971 6.16122 70.0954 6.34058 69.7847 6.47764C69.1651 6.76349 68.5257 6.96628 67.8835 7.14818C65.3061 7.83503 62.681 8.19782 60.0586 8.51118C54.8053 9.07523 49.5322 9.30859 44.2608 9.3947C38.9882 9.52718 33.7182 9.21484 28.4509 9.05383L36.3554 9.18478C38.9891 9.26885 41.6241 9.25 44.2582 9.1914C49.525 9.07166 54.7927 8.80263 60.0321 8.20801C62.6491 7.91248 65.2715 7.56651 67.8309 6.90157C68.4672 6.72629 69.1012 6.5286 69.7038 6.25498C70.0068 6.12403 70.2942 5.95232 70.5464 5.74545C70.8077 5.53909 70.9457 5.21299 70.7676 4.94243C70.385 4.41456 69.7132 4.15826 69.1147 3.91063C68.4942 3.67676 67.8575 3.49231 67.2172 3.32773C64.6492 2.68776 62.029 2.32446 59.4116 2.00855C56.7928 1.68959 54.165 1.45622 51.5345 1.27432Z" fill="#C8C8C8"/>
<path d="M19.1023 8.32678C17.2384 8.14386 15.3773 7.91865 13.5247 7.60784C11.6829 7.25524 9.81191 6.93118 8.07714 6.04307C7.86445 5.91772 7.66031 5.77047 7.47505 5.57991C7.30957 5.3766 7.15894 5.04897 7.28889 4.74224C7.56543 4.21436 8.03622 4.00342 8.46024 3.78126C9.33797 3.36956 10.2539 3.11735 11.1699 2.88908C13.0067 2.44833 14.8638 2.15382 16.7236 1.90263C20.4485 1.44863 24.1874 1.1954 27.9272 1.03541C31.6675 0.86777 35.4109 0.833632 39.152 0.902927C35.4104 0.953371 31.6711 1.05935 27.9344 1.23871C24.1991 1.43233 20.4661 1.72123 16.7537 2.20529C14.898 2.43916 13.044 2.71584 11.2162 3.13722C10.3061 3.35479 9.39373 3.59885 8.53804 3.9917C8.12615 4.19194 7.67155 4.42939 7.46156 4.83141C7.30553 5.26451 7.77137 5.64767 8.15942 5.86371C9.83664 6.74316 11.7162 7.09066 13.5454 7.4616C15.3872 7.82031 17.2429 8.09495 19.1023 8.32678Z" fill="#C8C8C8"/>
<path d="M24.1484 0.363661C20.9599 0.558302 17.7741 0.815104 14.5982 1.17585C11.4245 1.53558 8.24723 1.9539 5.12977 2.70699C4.35231 2.90163 3.57935 3.11971 2.82483 3.39842C2.09638 3.69497 1.28161 3.99559 0.80452 4.6432C0.577893 4.98051 0.754159 5.40088 1.07162 5.65055C1.37873 5.90582 1.72677 6.11728 2.09458 6.2788C2.82483 6.61661 3.59239 6.8617 4.36265 7.07978C7.46168 7.90776 10.6372 8.34953 13.8068 8.73015C20.1532 9.48833 26.5348 9.85264 32.9158 10.0351C36.1075 10.1247 39.3001 10.167 42.4917 10.0835L52.0699 9.97085C45.687 10.1125 39.2996 10.4417 32.9122 10.2384C26.5262 10.0891 20.1393 9.76092 13.7789 9.03332C10.6039 8.63435 7.42616 8.17629 4.30914 7.32588C3.53259 7.10169 2.75963 6.851 2.01275 6.50095C1.63773 6.33332 1.27486 6.11422 0.941665 5.83296C0.779789 5.68214 0.626457 5.50329 0.540123 5.26076C0.456937 5.00548 0.509546 4.72014 0.638597 4.51429C1.20876 3.75968 2.01994 3.5039 2.76592 3.19359C3.53124 2.9159 4.31004 2.70037 5.09199 2.50929C11.3732 1.09178 17.7741 0.685175 24.1484 0.363661Z" fill="#C8C8C8"/>
<path d="M63.4018 9.16345C65.6564 8.90206 67.9073 8.58972 70.1421 8.17394C72.3621 7.74084 74.6405 7.3373 76.6842 6.2841C77.1541 6.02526 77.7368 5.56464 77.5457 5.01027C77.2872 4.50889 76.7359 4.21999 76.2363 3.97134C75.2003 3.48678 74.096 3.18361 72.9934 2.91101C70.7811 2.38415 68.536 2.03258 66.2877 1.73297C61.7916 1.12052 57.2694 0.744486 52.744 0.484116C48.2178 0.238523 43.6866 0.0887213 39.1541 0.0107632C43.6875 -0.0310183 48.2223 0.0474491 52.7526 0.281323C57.2824 0.508064 61.8104 0.84792 66.3196 1.43031C68.571 1.74775 70.8193 2.11716 73.0411 2.66338C74.149 2.94617 75.257 3.258 76.3155 3.76192C76.8267 4.03197 77.3942 4.29387 77.7193 4.92212C77.8704 5.2844 77.6914 5.66808 77.4927 5.91112C77.2692 6.13837 77.0232 6.31416 76.766 6.46447C75.7273 7.03005 74.6162 7.33832 73.511 7.62875C72.403 7.91205 71.2838 8.12911 70.1624 8.32069C67.9168 8.68806 65.6604 8.95149 63.4018 9.16345Z" fill="#C8C8C8"/>
<path d="M151.485 1.59813C148.854 1.76322 146.225 1.97926 143.604 2.28141C140.986 2.58 138.364 2.92699 135.792 3.54963C135.151 3.71014 134.513 3.89102 133.892 4.12082C133.292 4.36386 132.619 4.61659 132.234 5.14141C132.055 5.41095 132.191 5.73807 132.451 5.94596C132.702 6.15435 132.988 6.3281 133.291 6.46109C133.892 6.73878 134.525 6.94005 135.161 7.11991C137.717 7.80116 140.337 8.16445 142.953 8.47679C148.189 9.10504 153.455 9.40872 158.721 9.5626C161.355 9.63801 163.99 9.67419 166.624 9.60693L174.529 9.52693C169.261 9.65432 163.99 9.93252 158.717 9.76539C153.447 9.64514 148.175 9.37764 142.925 8.77996C140.304 8.44928 137.681 8.06968 135.107 7.36602C134.466 7.18004 133.827 6.97266 133.209 6.68325C132.899 6.54363 132.599 6.36275 132.321 6.12786C132.186 6.00251 132.058 5.85271 131.984 5.64686C131.913 5.4298 131.959 5.18574 132.068 5.0125C132.546 4.38017 133.216 4.1733 133.833 3.91599C134.466 3.6867 135.109 3.50938 135.755 3.35194C140.941 2.18257 146.224 1.85341 151.485 1.59813Z" fill="#C8C8C8"/>
<path d="M183.881 8.86096C185.741 8.64084 187.598 8.37844 189.442 8.03145C191.273 7.67274 193.154 7.33747 194.836 6.46923C195.225 6.25573 195.693 5.87562 195.539 5.441C195.331 5.03796 194.878 4.79746 194.467 4.59416C193.613 4.19621 192.702 3.94654 191.793 3.72235C189.968 3.28925 188.115 3.00085 186.26 2.75475C182.551 2.24675 178.819 1.93339 175.084 1.71531C171.349 1.51201 167.61 1.38208 163.869 1.30718C167.611 1.26234 171.354 1.32093 175.093 1.51252C178.832 1.69697 182.569 1.97415 186.292 2.45209C188.15 2.71552 190.006 3.02226 191.84 3.47472C192.756 3.7091 193.671 3.96743 194.546 4.38474C194.969 4.60944 195.438 4.82344 195.712 5.35285C195.841 5.6606 195.689 5.98721 195.522 6.1895C195.336 6.37904 195.131 6.52477 194.918 6.64909C193.178 7.52548 191.306 7.83732 189.462 8.17819C187.608 8.47729 185.745 8.69027 183.881 8.86096Z" fill="#C8C8C8"/>
<path d="M178.875 0.865234C185.248 1.22802 191.646 1.67641 197.92 3.13468C198.702 3.33085 199.479 3.55097 200.243 3.83376C200.988 4.14865 201.797 4.41004 202.364 5.16822C202.492 5.37509 202.543 5.66042 202.458 5.91519C202.371 6.15722 202.217 6.33504 202.054 6.48484C201.719 6.76407 201.356 6.98062 200.98 7.14621C200.231 7.49117 199.457 7.73676 198.679 7.95637C195.558 8.78639 192.378 9.22408 189.201 9.60164C182.837 10.2885 176.448 10.5748 170.062 10.6829C163.673 10.8449 157.288 10.474 150.906 10.2915L160.483 10.4658C163.675 10.5703 166.867 10.5489 170.059 10.4796C176.441 10.3384 182.825 10.0154 189.174 9.29847C192.346 8.93874 195.524 8.51787 198.626 7.70975C199.399 7.49626 200.167 7.25627 200.899 6.92355C201.267 6.76458 201.617 6.55516 201.925 6.30141C202.243 6.05429 202.422 5.63495 202.197 5.29611C201.723 4.64544 200.91 4.33921 200.183 4.03808C199.43 3.75478 198.658 3.5311 197.881 3.33187C194.768 2.55891 191.593 2.1197 188.421 1.73908C185.247 1.35795 182.062 1.08077 178.875 0.865234Z" fill="#C8C8C8"/>
<path d="M139.578 9.41052C137.32 9.18378 135.066 8.90558 132.822 8.52394C131.702 8.32522 130.584 8.10052 129.477 7.81009C128.373 7.51252 127.264 7.19661 126.228 6.62441C125.972 6.47257 125.726 6.29525 125.504 6.06699C125.306 5.82241 125.129 5.43772 125.283 5.07646C125.611 4.45025 126.179 4.19191 126.692 3.92492C127.753 3.42864 128.862 3.12343 129.972 2.84777C132.196 2.31582 134.446 1.96119 136.699 1.65802C141.211 1.10569 145.741 0.794875 150.272 0.597178C154.803 0.392856 159.339 0.343942 163.872 0.415276C159.339 0.463681 154.807 0.58393 150.28 0.80048C145.753 1.0313 141.229 1.37778 136.73 1.96119C134.48 2.24602 132.233 2.58333 130.018 3.09591C128.915 3.36138 127.809 3.65793 126.77 4.13536C126.269 4.38044 125.717 4.66578 125.455 5.16563C125.262 5.71847 125.842 6.18316 126.31 6.44506C128.349 7.5115 130.625 7.92983 132.843 8.3772C135.076 8.80724 137.325 9.13436 139.578 9.41052Z" fill="#C8C8C8"/>
<path d="M48.4357 19.9825L47.6708 22.9174L31.534 22.8669L30.7791 19.9264L48.4357 19.9825Z" fill="#4D4D4D"/>
<mask id="mask8_1_1546" style="mask-type:luminance" maskUnits="userSpaceOnUse" x="30" y="19" width="19" height="4">
<path d="M30.7791 19.9263H48.4357V22.9172H30.7791V19.9263Z" fill="white"/>
</mask>
<g mask="url(#mask8_1_1546)">
<g opacity="0.100006">
<path d="M48.4357 19.9823L47.6708 22.9172L31.534 22.8668L30.7791 19.9263L48.4357 19.9823Z" fill="#4D4D4D"/>
</g>
</g>
<path d="M41.7464 7.24211L41.7316 13.1567L40.232 13.1511L36.512 13.1343L36.5268 7.2253L38.012 7.2309L40.2616 7.23651L41.7464 7.24211Z" fill="#2B454E"/>
<path d="M40.2602 7.23749L38.012 7.23035L38.0201 3.97751L40.2683 3.98465L40.2602 7.23749Z" fill="#4D4D4D"/>
<path d="M38.0188 4.44699L12.3268 4.36393L12.3254 4.97588L31.4053 6.77197L38.0161 5.47471L38.0188 4.44699Z" fill="#A8A8A8"/>
<path d="M40.2671 4.45444L65.9591 4.53749L65.9573 5.14995L46.869 6.82172L40.2644 5.48165L40.2671 4.45444Z" fill="#A8A8A8"/>
<path d="M176.87 13.5927L175.395 20.396L172.425 20.3848L154.769 20.3292L134.857 20.262L116.056 48.8176L101.408 48.7671L86.7663 48.7223L68.1082 20.0495L48.197 19.9822L30.5399 19.9267L27.5703 19.9155L26.1296 13.1066L39.9925 13.151L41.4921 13.1566L70.2738 13.2462L84.7338 19.0702L118.197 19.1823L132.726 13.4475L161.508 13.5423L166.727 13.5591L176.87 13.5927Z" fill="#4D4D4D"/>
<path d="M166.981 7.65018L166.966 13.5592L161.747 13.5424L161.762 7.63337L165.497 7.64458L166.981 7.65018Z" fill="#2B454E"/>
<path d="M163.255 4.85283L137.563 4.76978L137.562 5.38172L156.641 7.17731L163.252 5.88055L163.255 4.85283Z" fill="#A8A8A8"/>
<path d="M109.559 51.7351L93.4253 51.6826L92.6716 48.7401L110.328 48.7972L109.559 51.7351Z" fill="#4D4D4D"/>
<mask id="mask9_1_1546" style="mask-type:luminance" maskUnits="userSpaceOnUse" x="92" y="48" width="19" height="4">
<path d="M92.6716 48.7403H110.328V51.7353H92.6716V48.7403Z" fill="white"/>
</mask>
<g mask="url(#mask9_1_1546)">
<g opacity="0.100006">
<path d="M109.559 51.7351L93.4253 51.6826L92.6716 48.7401L110.328 48.7972L109.559 51.7351Z" fill="black"/>
</g>
</g>
<path d="M92.3111 12.7257L110.719 12.7854L112.44 19.1484L90.5583 19.077L92.3111 12.7257Z" fill="#4D4D4D"/>
<mask id="mask10_1_1546" style="mask-type:luminance" maskUnits="userSpaceOnUse" x="90" y="12" width="23" height="8">
<path d="M90.5583 12.7256H112.44V19.1483H90.5583V12.7256Z" fill="white"/>
</mask>
<g mask="url(#mask10_1_1546)">
<g opacity="0.100006">
<path d="M92.3114 12.7258L110.719 12.7854L112.44 19.1484L90.5586 19.0771L92.3114 12.7258Z" fill="black"/>
</g>
</g>
<mask id="mask11_1_1546" style="mask-type:luminance" maskUnits="userSpaceOnUse" x="89" y="40" width="25" height="7">
<path d="M89.5518 40.2072H113.448V46.4678H89.5518V40.2072Z" fill="white"/>
</mask>
<g mask="url(#mask11_1_1546)">
<g opacity="0.100006">
<path d="M110.981 46.4676H92.0181L89.5513 40.2075H113.448L110.981 46.4676Z" fill="black"/>
</g>
</g>
<mask id="mask12_1_1546" style="mask-type:luminance" maskUnits="userSpaceOnUse" x="84" y="25" width="35" height="8">
<path d="M84.4866 25.2881H118.513V32.6768H84.4866V25.2881Z" fill="white"/>
</mask>
<g mask="url(#mask12_1_1546)">
<g opacity="0.100006">
<path d="M115.602 32.6766H87.3979L84.4863 25.2879H118.513L115.602 32.6766Z" fill="black"/>
</g>
</g>
<mask id="mask13_1_1546" style="mask-type:luminance" maskUnits="userSpaceOnUse" x="28" y="16" width="147" height="23">
<path d="M28.4512 16.1247H174.549V38.353H28.4512V16.1247Z" fill="white"/>
</mask>
<g mask="url(#mask13_1_1546)">
<g opacity="0.199997">
<path d="M174.549 16.5177C164.853 16.5192 142.527 17.1403 133.952 16.7704C128.637 23.9848 123.259 31.1391 117.916 38.3271C109.628 38.3571 93.3699 38.3663 85.0831 38.3281C79.7399 31.1402 74.3629 23.9843 69.0462 16.7709L69.3097 16.9095C59.1488 16.8667 38.6152 16.6634 28.4512 16.5177C38.742 16.3719 59.1847 16.1691 69.4675 16.1248C74.8733 23.2379 80.2183 30.4095 85.5967 37.549L85.2779 37.3819C93.3645 37.3427 109.637 37.3518 117.722 37.3829L117.404 37.5495C122.747 30.4569 128.056 23.3316 133.428 16.2654L133.533 16.1268L133.69 16.1279C143.851 16.1788 164.385 16.3668 174.549 16.5177Z" fill="black"/>
</g>
</g>
<path d="M77.6779 34.6865L61.9084 85.025H65.0408L80.7194 39.3599L77.6779 34.6865Z" fill="#375A64"/>
<path d="M85.3445 46.4676L73.0063 60.7131L75.9912 52.474L83.4712 43.5893L85.3445 46.4676Z" fill="#375A64"/>
<path d="M125.322 34.6865L141.092 85.025H137.96L122.281 39.3599L125.322 34.6865Z" fill="#375A64"/>
<path d="M117.655 46.4676L129.993 60.7131L127.009 52.474L119.529 43.5893L117.655 46.4676Z" fill="#375A64"/>
</svg>
