<svg width="50" height="23" viewBox="0 0 50 23" fill="none" xmlns="http://www.w3.org/2000/svg">
<path d="M14.8651 6.67118C16.1671 6.73692 17.4743 6.81944 18.7565 7.09269C18.9162 7.12937 19.0751 7.17069 19.2315 7.2237C19.3839 7.28296 19.5493 7.33099 19.6669 7.47531C19.6936 7.51477 19.7047 7.57021 19.6868 7.61951C19.6685 7.66604 19.6364 7.69995 19.6029 7.7283C19.5339 7.78119 19.4593 7.82182 19.3824 7.85307C19.229 7.91799 19.0708 7.96406 18.9118 8.00537C18.2739 8.16138 17.6241 8.24379 16.975 8.31496C15.6747 8.44308 14.3695 8.49609 13.0647 8.51565C11.7596 8.54585 10.4551 8.47491 9.15137 8.43822L11.1079 8.46796C11.7598 8.48718 12.412 8.48278 13.064 8.46947C14.3677 8.44239 15.6716 8.38116 16.9684 8.2461C17.6162 8.17909 18.2653 8.10039 18.8988 7.94936C19.0563 7.90954 19.2131 7.86464 19.3624 7.80249C19.4374 7.77275 19.5085 7.73374 19.571 7.68664C19.6356 7.64 19.6698 7.56581 19.6257 7.50436C19.531 7.38457 19.3647 7.32624 19.2166 7.26999C19.063 7.21687 18.9054 7.17497 18.7469 7.13759C18.1111 6.99234 17.4627 6.90971 16.8148 6.83795C16.1665 6.7655 15.5162 6.7125 14.8651 6.67118Z" fill="#C8C8C8"/>
<path d="M6.83712 8.27319C6.37578 8.23164 5.91511 8.18049 5.45655 8.10989C5.00067 8.0298 4.53766 7.9562 4.10815 7.75447C4.05551 7.726 4.00509 7.69255 3.95923 7.64927C3.91816 7.60309 3.88088 7.52867 3.91304 7.45888C3.98149 7.3391 4.09802 7.29118 4.20298 7.24072C4.42024 7.14721 4.64695 7.08992 4.87378 7.03807C5.32833 6.93796 5.78812 6.87107 6.24834 6.81401C7.17035 6.71089 8.09581 6.65337 9.0215 6.61703C9.94729 6.57895 10.8739 6.5712 11.7999 6.58694C10.8738 6.59839 9.94818 6.62235 9.02339 6.66321C8.09882 6.70707 7.17469 6.77281 6.25591 6.88275C5.79646 6.93588 5.33757 6.99872 4.88514 7.09443C4.65987 7.14385 4.43404 7.19929 4.22223 7.28852C4.12028 7.33389 4.00776 7.38794 3.95578 7.47925C3.91716 7.57763 4.03258 7.66466 4.12852 7.71373C4.54367 7.91349 5.0089 7.99242 5.46167 8.07668C5.91756 8.15815 6.37689 8.22042 6.83712 8.27319Z" fill="#C8C8C8"/>
<path d="M8.08592 6.46432C7.29669 6.50853 6.50824 6.56686 5.72202 6.6488C4.93635 6.73051 4.15001 6.82564 3.37837 6.9967C3.18604 7.04079 2.99461 7.09033 2.80785 7.15363C2.62754 7.22099 2.42586 7.28939 2.30777 7.43637C2.25168 7.51311 2.29531 7.60859 2.37389 7.66518C2.4499 7.72328 2.53605 7.77131 2.62709 7.808C2.80785 7.88473 2.99772 7.94028 3.1886 7.98982C3.95557 8.178 4.74158 8.27835 5.52624 8.36468C7.09691 8.5369 8.6766 8.61965 10.2561 8.66108C11.046 8.68145 11.8363 8.69106 12.6263 8.67208L14.9971 8.6465C13.4172 8.67867 11.8362 8.75344 10.2552 8.70726C8.67448 8.67335 7.09357 8.59882 5.51923 8.43355C4.73334 8.34304 3.94678 8.23888 3.17525 8.04583C2.98303 7.99479 2.79171 7.93785 2.60673 7.85846C2.5139 7.82027 2.42419 7.77062 2.34172 7.70662C2.30165 7.67247 2.2637 7.63173 2.24233 7.57664C2.22174 7.51866 2.23487 7.45385 2.2667 7.40709C2.40783 7.23569 2.60862 7.17759 2.79326 7.10722C2.9827 7.04403 3.17547 6.99508 3.36902 6.95179C4.92377 6.6297 6.50813 6.53735 8.08592 6.46432Z" fill="#C8C8C8"/>
<path d="M17.8019 8.46313C18.36 8.40376 18.9171 8.33282 19.4703 8.23838C20.0198 8.14 20.5838 8.04834 21.0896 7.80912C21.2059 7.75032 21.3502 7.6457 21.3029 7.51978C21.2389 7.4059 21.1024 7.34016 20.9788 7.2838C20.7222 7.17385 20.449 7.10487 20.1761 7.04295C19.6284 6.92328 19.0726 6.84342 18.5162 6.77537C17.4033 6.63626 16.284 6.55085 15.1639 6.49171C14.0435 6.43592 12.922 6.4019 11.8 6.3843C12.9221 6.3747 14.0446 6.39252 15.166 6.44564C16.2872 6.49715 17.408 6.57434 18.5241 6.70663C19.0814 6.77873 19.6379 6.86264 20.1879 6.9867C20.4621 7.05094 20.7363 7.12177 20.9983 7.23623C21.125 7.29757 21.2654 7.35706 21.3458 7.49976C21.3832 7.58204 21.3389 7.66919 21.2897 7.7244C21.2344 7.77602 21.1735 7.81595 21.1099 7.85009C20.8528 7.97844 20.5776 8.04857 20.3042 8.11454C20.0298 8.17889 19.7529 8.22819 19.4753 8.27171C18.9195 8.35515 18.361 8.41499 17.8019 8.46313Z" fill="#C8C8C8"/>
<path d="M35.1049 6.73146C34.4536 6.76896 33.8029 6.81803 33.1543 6.88667C32.5059 6.95449 31.8571 7.0333 31.2205 7.17473C31.0618 7.21119 30.904 7.25227 30.7502 7.30447C30.6017 7.35979 30.4352 7.41708 30.3397 7.53629C30.2954 7.59751 30.3291 7.67181 30.3936 7.71903C30.4557 7.76637 30.5266 7.80583 30.6015 7.83604C30.7503 7.89911 30.9069 7.94483 31.0643 7.98568C31.6969 8.14042 32.3456 8.22294 32.993 8.29389C34.289 8.43659 35.5925 8.50557 36.8961 8.54052C37.5479 8.55765 38.2001 8.56586 38.8521 8.55059L40.8088 8.53242C39.5049 8.56135 38.2001 8.62454 36.8951 8.58658C35.5904 8.55927 34.2855 8.49851 32.986 8.36275C32.3372 8.28764 31.688 8.20141 31.0509 8.04147C30.8922 7.99934 30.7341 7.95224 30.5811 7.8865C30.5044 7.85479 30.43 7.8137 30.3614 7.76035C30.328 7.73188 30.2962 7.69774 30.278 7.65109C30.2603 7.60179 30.2717 7.54635 30.2987 7.507C30.4172 7.36338 30.5828 7.31639 30.7356 7.25794C30.8921 7.20586 31.0514 7.16559 31.2112 7.12982C32.4949 6.86421 33.8026 6.78945 35.1049 6.73146Z" fill="#C8C8C8"/>
<path d="M43.1231 8.3811C43.5837 8.33111 44.0432 8.2715 44.4995 8.19269C44.9528 8.11121 45.4184 8.03506 45.8347 7.83784C45.931 7.78935 46.0468 7.70301 46.0088 7.60429C45.9574 7.51274 45.8451 7.45812 45.7433 7.41194C45.5321 7.32155 45.3066 7.26484 45.0815 7.21392C44.6297 7.11554 44.1711 7.05004 43.712 6.99414C42.7938 6.87875 41.8701 6.80757 40.9457 6.75804C40.0212 6.71186 39.0957 6.68235 38.1697 6.66533C39.0958 6.65515 40.0223 6.66846 40.9478 6.71197C41.8733 6.75387 42.7984 6.81683 43.7199 6.92539C44.1799 6.98522 44.6392 7.0549 45.0933 7.15767C45.3197 7.21091 45.5462 7.26959 45.7629 7.36437C45.8676 7.41541 45.9838 7.46402 46.0516 7.58427C46.0835 7.65417 46.0457 7.72836 46.0044 7.77431C45.9584 7.81736 45.9077 7.85046 45.855 7.8787C45.4243 8.07776 44.9609 8.14859 44.5046 8.22602C44.0457 8.29396 43.5847 8.34233 43.1231 8.3811Z" fill="#C8C8C8"/>
<path d="M41.884 6.56485C43.4614 6.64725 45.0452 6.74909 46.5982 7.08033C46.7915 7.12489 46.9839 7.175 47.173 7.23923C47.3573 7.31076 47.5578 7.37001 47.6979 7.54223C47.7296 7.58921 47.7423 7.65403 47.7214 7.71189C47.6997 7.76687 47.6615 7.80738 47.6212 7.84129C47.5384 7.90471 47.4484 7.9539 47.3554 7.99162C47.17 8.06986 46.9784 8.12565 46.7859 8.17553C46.0134 8.36406 45.2262 8.46348 44.4398 8.54935C42.8646 8.70525 41.2832 8.77029 39.7025 8.79483C38.1212 8.83174 36.5407 8.74749 34.9609 8.70594L37.3316 8.74552C38.1215 8.76925 38.9118 8.76439 39.7018 8.74876C41.2815 8.71659 42.8616 8.64333 44.4333 8.48049C45.2183 8.39866 46.0048 8.30307 46.7729 8.11951C46.9639 8.07113 47.1542 8.01662 47.3354 7.94093C47.4266 7.90482 47.513 7.85726 47.5893 7.79974C47.6682 7.74349 47.7124 7.64836 47.6567 7.57128C47.5394 7.42348 47.3382 7.35393 47.1581 7.28553C46.9718 7.22118 46.7807 7.17049 46.5885 7.12523C45.8178 6.94955 45.0321 6.84978 44.2468 6.76345C43.4612 6.67676 42.6729 6.6138 41.884 6.56485Z" fill="#C8C8C8"/>
<path d="M32.1573 8.50586C31.5985 8.45436 31.0404 8.39117 30.485 8.30448C30.2077 8.25934 29.931 8.20842 29.657 8.14245C29.3838 8.07486 29.1092 8.00311 28.8528 7.87314C28.7894 7.83865 28.7286 7.79837 28.6736 7.74641C28.6248 7.69085 28.5809 7.60347 28.6189 7.52142C28.7001 7.37918 28.8408 7.3205 28.9677 7.25997C29.2303 7.14713 29.5049 7.07792 29.7795 7.01519C30.3301 6.89448 30.887 6.81381 31.4448 6.74507C32.5616 6.6195 33.6828 6.5489 34.8043 6.50411C35.9258 6.4577 37.0485 6.44659 38.1705 6.46268C37.0485 6.47367 35.9268 6.5011 34.8062 6.55017C33.6857 6.6026 32.5659 6.68141 31.4522 6.81381C30.8955 6.87863 30.3393 6.95524 29.7911 7.07156C29.5178 7.13185 29.2441 7.19921 28.987 7.30766C28.8631 7.36332 28.7263 7.42814 28.6616 7.54167C28.6136 7.66736 28.7573 7.77279 28.8732 7.83228C29.3778 8.07452 29.9412 8.16953 30.4902 8.27126C31.0429 8.36883 31.5996 8.44325 32.1573 8.50586Z" fill="#C8C8C8"/>
<path d="M9.09302 9.24465L21.68 8.89027L21.6757 10.4422L9.27711 10.7971L9.09302 9.24465Z" fill="#20201D"/>
<mask id="mask0_1_1303" style="mask-type:luminance" maskUnits="userSpaceOnUse" x="9" y="8" width="13" height="3">
<path d="M9.09253 8.89016H21.6795V10.7971H9.09253V8.89016Z" fill="white"/>
</mask>
<g mask="url(#mask0_1_1303)">
<g opacity="0.100006">
<path d="M9.09229 9.24465L21.6792 8.89027L21.675 10.4422L9.27638 10.7971L9.09229 9.24465Z" fill="#20201D"/>
</g>
</g>
<path d="M14.0621 11.3217L10.0682 11.4473L9.88159 10.7789L14.2525 10.6544L14.0621 11.3217Z" fill="#20201D"/>
<mask id="mask1_1_1303" style="mask-type:luminance" maskUnits="userSpaceOnUse" x="9" y="10" width="6" height="2">
<path d="M9.88159 10.6544H14.2524V11.4473H9.88159V10.6544Z" fill="white"/>
</mask>
<g mask="url(#mask1_1_1303)">
<g opacity="0.199997">
<path d="M14.0617 11.3217L10.0678 11.4473L9.8811 10.7789L14.252 10.6544L14.0617 11.3217Z" fill="#20201D"/>
</g>
</g>
<path d="M12.7204 7.8329L11.4291 7.82908L11.4253 9.17184L12.7167 9.17566L12.7204 7.8329Z" fill="#1A2E35"/>
<path d="M12.3526 7.83179L11.7961 7.83017L11.7981 7.09132L12.3546 7.09305L12.3526 7.83179Z" fill="#2B454E"/>
<path d="M11.7987 7.19798L5.4393 7.17911L5.43896 7.31811L10.1615 7.72607L11.798 7.43141L11.7987 7.19798Z" fill="#A8A8A8"/>
<path d="M12.3547 7.19973L18.714 7.21871L18.7136 7.35771L13.9888 7.73755L12.354 7.43317L12.3547 7.19973Z" fill="#A8A8A8"/>
<path d="M41.0749 9.3398L28.4901 8.91054L28.4858 10.4624L40.8822 10.8911L41.0749 9.3398Z" fill="#20201D"/>
<mask id="mask2_1_1303" style="mask-type:luminance" maskUnits="userSpaceOnUse" x="28" y="8" width="14" height="3">
<path d="M28.4858 8.91054H41.0749V10.8911H28.4858V8.91054Z" fill="white"/>
</mask>
<g mask="url(#mask2_1_1303)">
<g opacity="0.100006">
<path d="M41.0747 9.3398L28.4898 8.91054L28.4856 10.4624L40.882 10.8911L41.0747 9.3398Z" fill="#20201D"/>
</g>
</g>
<path d="M36.0945 11.3872L40.0877 11.5366L40.2779 10.8693L35.908 10.7188L36.0945 11.3872Z" fill="#20201D"/>
<mask id="mask3_1_1303" style="mask-type:luminance" maskUnits="userSpaceOnUse" x="35" y="10" width="6" height="2">
<path d="M35.908 10.7188H40.2781V11.5366H35.908V10.7188Z" fill="white"/>
</mask>
<g mask="url(#mask3_1_1303)">
<g opacity="0.199997">
<path d="M36.0943 11.3872L40.0875 11.5366L40.2777 10.8693L35.9077 10.7188L36.0943 11.3872Z" fill="#20201D"/>
</g>
</g>
<path d="M37.4526 7.90977L38.744 7.91359L38.7403 9.25635L37.449 9.25253L37.4526 7.90977Z" fill="#1A2E35"/>
<path d="M37.8208 7.91086L38.3773 7.91248L38.3793 7.17374L37.8228 7.172L37.8208 7.91086Z" fill="#2B454E"/>
<path d="M38.3781 7.2803L44.7375 7.29916L44.737 7.43827L40.0122 7.81812L38.3774 7.51373L38.3781 7.2803Z" fill="#A8A8A8"/>
<path d="M37.8221 7.27866L31.4627 7.25968L31.4624 7.39868L36.185 7.80664L37.8214 7.5121L37.8221 7.27866Z" fill="#A8A8A8"/>
<mask id="mask4_1_1303" style="mask-type:luminance" maskUnits="userSpaceOnUse" x="10" y="9" width="31" height="2">
<path d="M10.0374 9.78425H40.0637V10.0173H10.0374V9.78425Z" fill="white"/>
</mask>
<g mask="url(#mask4_1_1303)">
<g opacity="0.199997">
<path d="M10.0374 9.90085C20.0095 9.74611 30.0915 9.74484 40.0636 9.90085C30.0914 10.0567 20.0095 10.0556 10.0374 9.90085Z" fill="#20201D"/>
</g>
</g>
<path d="M42.6146 4.63019L42.424 5.2981L38.4298 5.28536L38.2441 4.61746L42.6146 4.63019Z" fill="#20201D"/>
<mask id="mask5_1_1303" style="mask-type:luminance" maskUnits="userSpaceOnUse" x="38" y="4" width="5" height="2">
<path d="M38.2441 4.61746H42.6146V5.2981H38.2441V4.61746Z" fill="white"/>
</mask>
<g mask="url(#mask5_1_1303)">
<g opacity="0.100006">
<path d="M42.6143 4.63019L42.4238 5.2981L38.4295 5.28536L38.2439 4.61746L42.6143 4.63019Z" fill="#20201D"/>
</g>
</g>
<path d="M40.2839 1.73446L40.8404 1.73608L40.8424 0.997232L40.2859 0.995612L40.2839 1.73446Z" fill="#20201D"/>
<path d="M40.8425 1.1039L47.2018 1.12276L47.2014 1.26188L42.4767 1.6416L40.8418 1.33733L40.8425 1.1039Z" fill="#A8A8A8"/>
<path d="M24.3933 12.6164H25.6055L25.794 13.2842H24.2048L24.3933 12.6164Z" fill="#20201D"/>
<mask id="mask6_1_1303" style="mask-type:luminance" maskUnits="userSpaceOnUse" x="24" y="12" width="2" height="2">
<path d="M24.2048 12.6165H25.794V13.2843H24.2048V12.6165Z" fill="white"/>
</mask>
<g mask="url(#mask6_1_1303)">
<g opacity="0.100006">
<path d="M24.3935 12.6164H25.6058L25.7942 13.2842H24.2051L24.3935 12.6164Z" fill="#20201D"/>
</g>
</g>
<path d="M25.3645 12.6165H24.6355V11.7438H25.3645V12.6165Z" fill="#20201D"/>
<path d="M28.135 16.4094C28.135 18.2099 26.7313 19.6694 24.9999 19.6694C23.2684 19.6694 21.8647 18.2099 21.8647 16.4094C21.8647 14.6089 23.2684 13.1494 24.9999 13.1494C26.7313 13.1494 28.135 14.6089 28.135 16.4094Z" fill="#20201D"/>
<mask id="mask7_1_1303" style="mask-type:luminance" maskUnits="userSpaceOnUse" x="22" y="14" width="6" height="5">
<path d="M22.7932 14.115H27.2063V18.7039H22.7932V14.115Z" fill="white"/>
</mask>
<g mask="url(#mask7_1_1303)">
<g opacity="0.100006">
<path d="M27.2061 16.4094C27.2061 17.6766 26.2182 18.7039 24.9996 18.7039C23.7809 18.7039 22.793 17.6766 22.793 16.4094C22.793 15.1422 23.7809 14.115 24.9996 14.115C26.2182 14.115 27.2061 15.1422 27.2061 16.4094Z" fill="#20201D"/>
</g>
</g>
<path d="M26.7264 16.4094C26.7264 17.4007 25.9536 18.2043 25.0002 18.2043C24.0469 18.2043 23.2742 17.4007 23.2742 16.4094C23.2742 15.4181 24.0469 14.6145 25.0002 14.6145C25.9536 14.6145 26.7264 15.4181 26.7264 16.4094Z" fill="#1A2E35"/>
<path d="M25.5723 16.4094C25.5723 16.7381 25.3161 17.0045 25 17.0045C24.6839 17.0045 24.4277 16.7381 24.4277 16.4094C24.4277 16.0807 24.6839 15.8143 25 15.8143C25.3161 15.8143 25.5723 16.0807 25.5723 16.4094Z" fill="#2B454E"/>
<path d="M25.9042 15.4873C25.8209 15.6373 25.5905 15.6611 25.3896 15.5405C25.1887 15.4199 25.0933 15.2005 25.1766 15.0505C25.2599 14.9005 25.4903 14.8767 25.6912 14.9973C25.8921 15.1179 25.9874 15.3373 25.9042 15.4873Z" fill="white"/>
<path d="M26.2674 16.1439C26.1856 16.1929 26.066 16.1368 26.0002 16.0183C25.9344 15.8999 25.9474 15.7639 26.0292 15.7148C26.111 15.6658 26.2307 15.7219 26.2965 15.8404C26.3623 15.9589 26.3492 16.0948 26.2674 16.1439Z" fill="white"/>
<path d="M27.141 14.5181C27.141 14.6479 27.0398 14.7532 26.9149 14.7532C26.7901 14.7532 26.689 14.6479 26.689 14.5181C26.689 14.3884 26.7901 14.2832 26.9149 14.2832C27.0398 14.2832 27.141 14.3884 27.141 14.5181Z" fill="#EB5A48"/>
<path d="M22.0916 19.5004C23.8429 20.7258 26.2566 20.7273 28.0076 19.5004C26.3148 20.8419 23.7849 20.8395 22.0916 19.5004Z" fill="#1A2E35"/>
<path d="M21.1638 20.3571C22.8763 21.558 25.103 21.9087 27.077 21.2717C27.7346 21.0637 28.3631 20.7547 28.9351 20.3571C28.3779 20.7822 27.7547 21.1141 27.0962 21.3355C25.1175 22.0108 22.8399 21.6484 21.1638 20.3571Z" fill="#1A2E35"/>
<path d="M20.0093 21.2551C22.5951 23.0995 26.1079 23.3794 28.9268 21.9457C29.33 21.7471 29.7191 21.5161 30.0893 21.2551C29.7269 21.5276 29.3439 21.7715 28.9448 21.9837C26.1379 23.4856 22.5534 23.204 20.0093 21.2551Z" fill="#1A2E35"/>
<path d="M12.6322 0.289393C13.9342 0.35513 15.2414 0.437649 16.5237 0.710899C16.6833 0.747587 16.8423 0.788789 16.9985 0.841911C17.1511 0.901168 17.3163 0.949198 17.434 1.09352C17.4608 1.13298 17.4718 1.18842 17.4539 1.23772C17.4355 1.28437 17.4035 1.31816 17.37 1.34652C17.3011 1.39941 17.2264 1.44015 17.1495 1.47128C16.9961 1.53621 16.8379 1.58227 16.6789 1.62358C16.041 1.7796 15.3912 1.862 14.7421 1.93318C13.4418 2.06129 12.1365 2.1143 10.8318 2.13386C9.52667 2.16395 8.22223 2.09301 6.91846 2.05643L8.875 2.08618C9.52689 2.10527 10.1791 2.10099 10.8311 2.08768C12.1348 2.06048 13.4386 1.99938 14.7355 1.86431C15.3833 1.79719 16.0324 1.7186 16.6659 1.56757C16.8234 1.52776 16.9803 1.48285 17.1295 1.4207C17.2045 1.39096 17.2756 1.35196 17.338 1.30497C17.4027 1.25809 17.4369 1.18402 17.3928 1.12257C17.2981 1.00267 17.1318 0.944453 16.9837 0.888205C16.8301 0.835083 16.6725 0.793187 16.514 0.755805C15.8783 0.610442 15.2298 0.527923 14.5819 0.456167C13.9337 0.383717 13.2833 0.33071 12.6322 0.289393Z" fill="#C8C8C8"/>
<path d="M4.6047 1.89136C4.14336 1.84981 3.68269 1.79865 3.22413 1.72806C2.76825 1.64797 2.30513 1.57436 1.87573 1.37263C1.82309 1.34416 1.77256 1.31072 1.7267 1.26743C1.68574 1.22125 1.64846 1.14683 1.68062 1.07716C1.74907 0.957261 1.8656 0.909347 1.97056 0.858886C2.18782 0.765373 2.41453 0.708084 2.64125 0.656235C3.09591 0.556124 3.55559 0.489229 4.01592 0.432172C4.93793 0.329052 5.8634 0.271532 6.78908 0.235191C7.71487 0.197114 8.64145 0.18936 9.56747 0.2051C8.64134 0.216558 7.71577 0.24063 6.79086 0.281369C5.86629 0.325348 4.94227 0.39097 4.02338 0.500918C3.56404 0.554041 3.10515 0.616885 2.65272 0.712597C2.42745 0.762016 2.20162 0.817453 1.98981 0.906685C1.88786 0.952169 1.77534 1.0061 1.72336 1.09742C1.68474 1.19579 1.80005 1.28282 1.8961 1.33189C2.31125 1.53165 2.77648 1.61058 3.22925 1.69484C3.68514 1.77632 4.14447 1.8387 4.6047 1.89136Z" fill="#C8C8C8"/>
<path d="M5.85353 0.0826027C5.0643 0.126813 4.27574 0.185144 3.48962 0.267084C2.70406 0.348793 1.91762 0.443811 1.14597 0.614868C0.953534 0.659078 0.762209 0.708613 0.575448 0.77192C0.395141 0.839278 0.193465 0.907561 0.0753757 1.05466C0.0192803 1.13128 0.0629102 1.22676 0.141488 1.28347C0.217506 1.34145 0.303652 1.38948 0.394696 1.42617C0.575447 1.5029 0.765437 1.55857 0.956095 1.6081C1.72318 1.79617 2.50918 1.89652 3.29373 1.98297C4.86462 2.15518 6.4442 2.23793 8.02366 2.27937C8.81367 2.29974 9.6039 2.30934 10.3939 2.29036L12.7647 2.26478C11.1848 2.29696 9.60379 2.37172 8.02277 2.32555C6.44208 2.29163 4.86117 2.2171 3.28683 2.05183C2.50094 1.96121 1.71438 1.85717 0.94285 1.664C0.750634 1.61308 0.559309 1.55614 0.374439 1.47663C0.281615 1.43855 0.191796 1.38879 0.109322 1.3249C0.0692542 1.29064 0.0313011 1.25002 0.00993141 1.19493C-0.0106591 1.13695 0.00236277 1.07214 0.0343059 1.02538C0.175435 0.853976 0.37622 0.795877 0.560867 0.725394C0.7503 0.662319 0.943072 0.613363 1.13662 0.569963C2.69138 0.247988 4.27573 0.155632 5.85353 0.0826027Z" fill="#C8C8C8"/>
<path d="M15.5695 2.0813C16.1276 2.02193 16.6847 1.95098 17.2379 1.85654C17.7874 1.75817 18.3513 1.6665 18.8572 1.42728C18.9735 1.36849 19.1177 1.26386 19.0704 1.13794C19.0064 1.02406 18.87 0.958439 18.7463 0.90196C18.4899 0.791896 18.2165 0.723034 17.9436 0.661116C17.396 0.541446 16.8403 0.461589 16.2838 0.393537C15.1709 0.254423 14.0516 0.169011 12.9315 0.10987C11.8111 0.0540862 10.6895 0.0200603 9.56763 0.00235271C10.6898 -0.00713754 11.8122 0.0106857 12.9336 0.063808C14.0548 0.11531 15.1756 0.192505 16.2917 0.32479C16.849 0.396893 17.4055 0.480801 17.9554 0.604869C18.2297 0.669101 18.5039 0.739931 18.7659 0.854393C18.8925 0.915733 19.0329 0.97522 19.1134 1.11792C19.1508 1.20021 19.1065 1.28736 19.0573 1.34256C19.002 1.39418 18.9411 1.43411 18.8774 1.46825C18.6203 1.59672 18.3453 1.66674 18.0717 1.73271C17.7975 1.79705 17.5205 1.84636 17.2429 1.88987C16.6871 1.97332 16.1286 2.03315 15.5695 2.0813Z" fill="#C8C8C8"/>
<path d="M37.3724 0.363057C36.7211 0.400555 36.0704 0.449627 35.4218 0.518257C34.7736 0.586078 34.1246 0.664893 33.4881 0.806322C33.3295 0.842778 33.1715 0.883864 33.0177 0.93606C32.8692 0.991266 32.7027 1.04867 32.6073 1.16788C32.5629 1.2291 32.5967 1.3034 32.6611 1.35062C32.7232 1.39796 32.7941 1.43742 32.869 1.46763C33.0178 1.53071 33.1744 1.57642 33.3318 1.61728C33.9644 1.77201 34.6131 1.85453 35.2605 1.92548C36.5566 2.06818 37.8602 2.13716 39.1636 2.17211C39.8155 2.18924 40.4677 2.19746 41.1196 2.18218L43.0764 2.16401C41.7725 2.19294 40.4676 2.25613 39.1626 2.21817C37.858 2.19086 36.5532 2.1301 35.2535 1.99434C34.6048 1.91923 33.9555 1.83301 33.3184 1.67318C33.1597 1.63093 33.0017 1.58383 32.8486 1.51809C32.772 1.48638 32.6976 1.44529 32.6289 1.39194C32.5955 1.36347 32.5637 1.32944 32.5456 1.28269C32.528 1.23338 32.5392 1.17795 32.5663 1.1386C32.6847 0.994969 32.8503 0.947981 33.0031 0.889535C33.1597 0.837454 33.3189 0.797179 33.4788 0.761416C34.7624 0.495805 36.0701 0.42104 37.3724 0.363057Z" fill="#C8C8C8"/>
<path d="M45.3912 2.0127C45.8516 1.9627 46.3113 1.90309 46.7676 1.82428C47.2208 1.7428 47.6865 1.66665 48.1028 1.46944C48.199 1.42094 48.3149 1.3346 48.2768 1.23588C48.2253 1.14434 48.1131 1.08971 48.0114 1.04353C47.8001 0.953142 47.5746 0.896432 47.3495 0.845509C46.8977 0.747134 46.4392 0.681628 45.9801 0.625728C45.0618 0.51034 44.1381 0.439164 43.2138 0.389629C42.2892 0.343451 41.3638 0.313938 40.4377 0.296925C41.3639 0.286741 42.2903 0.30005 43.2159 0.343567C44.1414 0.385463 45.0665 0.448422 45.988 0.556982C46.4478 0.616817 46.9073 0.686489 47.3613 0.789262C47.5878 0.8425 47.8143 0.901177 48.0309 0.995964C48.1356 1.047 48.2518 1.09561 48.3197 1.21586C48.3514 1.28576 48.3138 1.35995 48.2725 1.4059C48.2264 1.44895 48.1758 1.48205 48.123 1.51029C47.6924 1.70935 47.229 1.78018 46.7726 1.85761C46.3136 1.92555 45.8526 1.97392 45.3912 2.0127Z" fill="#C8C8C8"/>
<path d="M44.1526 0.196486C45.7299 0.27889 47.3137 0.380737 48.8667 0.71197C49.06 0.756528 49.2526 0.806525 49.4416 0.870758C49.6259 0.942282 49.8263 1.00165 49.9665 1.17387C49.9982 1.22086 50.0109 1.28567 49.99 1.34354C49.9682 1.39851 49.9301 1.4389 49.8898 1.47293C49.807 1.53635 49.717 1.58554 49.624 1.62315C49.4387 1.7015 49.2469 1.75729 49.0545 1.80717C48.2819 1.9957 47.4948 2.09512 46.7084 2.18088C45.1333 2.33689 43.5519 2.40193 41.9711 2.42647C40.3898 2.46327 38.8093 2.37902 37.2295 2.33758L39.6002 2.37716C40.3901 2.40089 41.1803 2.39603 41.9703 2.38029C43.5501 2.34823 45.1301 2.27485 46.7018 2.11201C47.4868 2.03031 48.2735 1.93471 49.0415 1.75115C49.2326 1.70266 49.4228 1.64815 49.604 1.57257C49.6951 1.53647 49.7816 1.4889 49.858 1.43126C49.9368 1.37513 49.9809 1.27988 49.9253 1.20292C49.808 1.05512 49.6067 0.985567 49.4268 0.917168C49.2403 0.852819 49.0492 0.802011 48.857 0.756759C48.0864 0.581189 47.3006 0.481426 46.5154 0.394972C45.7297 0.308402 44.9415 0.245442 44.1526 0.196486Z" fill="#C8C8C8"/>
<path d="M34.4254 2.13745C33.8665 2.08595 33.3085 2.02276 32.7531 1.93607C32.4757 1.89094 32.199 1.8399 31.925 1.77393C31.6519 1.70634 31.3773 1.63458 31.1209 1.50461C31.0574 1.47012 30.9967 1.42985 30.9417 1.378C30.8928 1.32245 30.849 1.23507 30.8869 1.15301C30.9682 1.01077 31.1089 0.952094 31.2357 0.891449C31.4984 0.778723 31.773 0.709398 32.0476 0.646785C32.5982 0.525958 33.1551 0.445407 33.7128 0.376544C34.8296 0.251088 35.9509 0.180489 37.0723 0.135584C38.1939 0.0891745 39.3166 0.0780642 40.4386 0.0942669C39.3166 0.105262 38.1949 0.132575 37.0742 0.181762C35.9538 0.23419 34.834 0.31289 33.7203 0.445407C33.1636 0.510103 32.6074 0.586719 32.0591 0.703148C31.7859 0.763446 31.5122 0.830804 31.255 0.939248C31.1311 0.994916 30.9943 1.05973 30.9297 1.17326C30.8817 1.29884 31.0254 1.40439 31.1412 1.46387C31.6459 1.70611 32.2094 1.80113 32.7582 1.90274C33.3109 2.00042 33.8677 2.07472 34.4254 2.13745Z" fill="#C8C8C8"/>
<path d="M11.8651 4.53881L11.6757 5.20544L7.6815 5.19399L7.49463 4.52608L11.8651 4.53881Z" fill="#20201D"/>
<mask id="mask8_1_1303" style="mask-type:luminance" maskUnits="userSpaceOnUse" x="7" y="4" width="5" height="2">
<path d="M7.49463 4.52596H11.865V5.20532H7.49463V4.52596Z" fill="white"/>
</mask>
<g mask="url(#mask8_1_1303)">
<g opacity="0.100006">
<path d="M11.8651 4.53869L11.6757 5.20532L7.6815 5.19386L7.49463 4.52596L11.8651 4.53869Z" fill="#20201D"/>
</g>
</g>
<path d="M10.2092 1.64495L10.2055 2.9884L9.83436 2.98713L8.91357 2.98331L8.91725 1.64113L9.28487 1.64241L9.84171 1.64368L10.2092 1.64495Z" fill="#2B454E"/>
<path d="M9.8419 1.64392L9.2854 1.6423L9.2874 0.903449L9.8439 0.905069L9.8419 1.64392Z" fill="#20201D"/>
<path d="M9.2867 1.00999L2.92734 0.991123L2.927 1.13012L7.64969 1.53809L9.28603 1.24342L9.2867 1.00999Z" fill="#A8A8A8"/>
<path d="M9.8432 1.01186L16.2026 1.03072L16.2021 1.16983L11.4773 1.54956L9.84253 1.24518L9.8432 1.01186Z" fill="#A8A8A8"/>
<path d="M43.6555 3.08739L43.2904 4.63269L42.5553 4.63014L38.1848 4.61752L33.2563 4.60225L28.6026 11.0884L24.977 11.0769L21.3527 11.0667L16.7344 4.55399L11.8059 4.53871L7.43538 4.52609L6.70035 4.52355L6.34375 2.97698L9.77513 2.98705L10.1463 2.98832L17.2704 3.00869L20.8496 4.33154L29.1326 4.357L32.7288 3.05441L39.8529 3.07593L41.1449 3.07975L43.6555 3.08739Z" fill="#20201D"/>
<path d="M41.2082 1.73766L41.2046 3.07983L39.9126 3.07601L39.9163 1.73384L40.8407 1.73638L41.2082 1.73766Z" fill="#2B454E"/>
<path d="M40.286 1.10227L33.9266 1.0834L33.9263 1.2224L38.6488 1.63025L40.2853 1.3357L40.286 1.10227Z" fill="#A8A8A8"/>
<path d="M26.9943 11.7511L23.0007 11.7392L22.8142 11.0708L27.1846 11.0838L26.9943 11.7511Z" fill="#20201D"/>
<mask id="mask9_1_1303" style="mask-type:luminance" maskUnits="userSpaceOnUse" x="22" y="11" width="6" height="1">
<path d="M22.8142 11.0709H27.1846V11.7512H22.8142V11.0709Z" fill="white"/>
</mask>
<g mask="url(#mask9_1_1303)">
<g opacity="0.100006">
<path d="M26.9941 11.7512L23.0005 11.7393L22.814 11.0709L27.1844 11.0839L26.9941 11.7512Z" fill="#20201D"/>
</g>
</g>
<path d="M22.7254 2.89053L27.2816 2.90407L27.7076 4.34937L22.2915 4.33316L22.7254 2.89053Z" fill="#20201D"/>
<mask id="mask10_1_1303" style="mask-type:luminance" maskUnits="userSpaceOnUse" x="22" y="2" width="6" height="3">
<path d="M22.2915 2.89053H27.7076V4.34937H22.2915V2.89053Z" fill="white"/>
</mask>
<g mask="url(#mask10_1_1303)">
<g opacity="0.100006">
<path d="M22.7254 2.89053L27.2816 2.90407L27.7076 4.34937L22.2915 4.33316L22.7254 2.89053Z" fill="#20201D"/>
</g>
</g>
<mask id="mask11_1_1303" style="mask-type:luminance" maskUnits="userSpaceOnUse" x="22" y="9" width="6" height="2">
<path d="M22.0422 9.13265H27.9572V10.5547H22.0422V9.13265Z" fill="white"/>
</mask>
<g mask="url(#mask11_1_1303)">
<g opacity="0.100006">
<path d="M27.3467 10.5547H22.6528L22.0422 9.13277H27.9573L27.3467 10.5547Z" fill="#20201D"/>
</g>
</g>
<mask id="mask12_1_1303" style="mask-type:luminance" maskUnits="userSpaceOnUse" x="20" y="5" width="10" height="3">
<path d="M20.7886 5.74385H29.2109V7.42212H20.7886V5.74385Z" fill="white"/>
</mask>
<g mask="url(#mask12_1_1303)">
<g opacity="0.100006">
<path d="M28.4903 7.422H21.5092L20.7886 5.74373H29.2109L28.4903 7.422Z" fill="#20201D"/>
</g>
</g>
<mask id="mask13_1_1303" style="mask-type:luminance" maskUnits="userSpaceOnUse" x="6" y="3" width="38" height="6">
<path d="M6.91895 3.66249H43.0815V8.71143H6.91895V3.66249Z" fill="white"/>
</mask>
<g mask="url(#mask13_1_1303)">
<g opacity="0.199997">
<path d="M43.0819 3.75178C40.682 3.75213 35.1557 3.89321 33.0334 3.80919C31.7177 5.44788 30.3865 7.07291 29.064 8.70558C27.0125 8.71241 22.9883 8.7145 20.9371 8.70582C19.6146 7.07314 18.2836 5.44776 16.9676 3.8093L17.0328 3.84078C14.5178 3.83106 9.43526 3.78488 6.91943 3.75178C9.46665 3.71868 14.5267 3.67262 17.0719 3.66255C18.41 5.27821 19.733 6.90718 21.0642 8.52886L20.9853 8.4909C22.987 8.48198 27.0148 8.48407 29.016 8.49113L28.9373 8.52897C30.2598 6.91794 31.574 5.29951 32.9035 3.69449L32.9295 3.66301L32.9685 3.66325C35.4835 3.67482 40.566 3.71753 43.0819 3.75178Z" fill="#20201D"/>
</g>
</g>
<path d="M19.103 7.87871L15.1997 19.3126H15.975L19.8558 8.94023L19.103 7.87871Z" fill="#375A64"/>
<path d="M21.0012 10.5546L17.9473 13.7903L18.6861 11.9188L20.5376 9.90078L21.0012 10.5546Z" fill="#375A64"/>
<path d="M30.8969 7.87871L34.8002 19.3126H34.0249L30.144 8.94023L30.8969 7.87871Z" fill="#375A64"/>
<path d="M28.9988 10.5546L32.0527 13.7903L31.3139 11.9188L29.4625 9.90078L28.9988 10.5546Z" fill="#375A64"/>
</svg>
