<svg width="40" height="40" viewBox="0 0 40 40" fill="none" xmlns="http://www.w3.org/2000/svg">
<g clip-path="url(#clip0_454_1174)">
<path d="M36.25 0.937522H3.75C3.0126 0.930018 2.30233 1.21535 1.77506 1.73091C1.24778 2.24646 0.946566 2.95014 0.9375 3.68752V36.3188C0.948206 37.0551 1.25014 37.7571 1.77724 38.2714C2.30434 38.7856 3.01367 39.07 3.75 39.0625H36.25C36.9874 39.0684 37.6972 38.7821 38.2242 38.2662C38.7512 37.7503 39.0526 37.0468 39.0625 36.3094V3.67815C39.0493 2.94292 38.7465 2.24261 38.2199 1.72942C37.6932 1.21622 36.9853 0.931641 36.25 0.937522Z" fill="#0076B2"/>
<path d="M6.58135 15.2281H12.2407V33.4375H6.58135V15.2281ZM9.4126 6.16565C10.0617 6.16565 10.6962 6.35817 11.2359 6.71886C11.7756 7.07954 12.1961 7.59219 12.4444 8.19194C12.6926 8.79169 12.7574 9.4516 12.6306 10.0882C12.5037 10.7248 12.1909 11.3094 11.7317 11.7682C11.2725 12.227 10.6875 12.5392 10.0508 12.6655C9.41412 12.7917 8.75427 12.7263 8.15475 12.4775C7.55524 12.2287 7.04299 11.8076 6.68282 11.2676C6.32265 10.7276 6.13073 10.0929 6.13135 9.44377C6.13218 8.57407 6.47824 7.74028 7.09351 7.1256C7.70877 6.51092 8.5429 6.16565 9.4126 6.16565ZM15.7907 15.2281H21.2157V17.7281H21.2907C22.047 16.2969 23.8907 14.7875 26.6439 14.7875C32.3751 14.775 33.4376 18.5469 33.4376 23.4375V33.4375H27.7782V24.5781C27.7782 22.4688 27.7407 19.7531 24.8376 19.7531C21.9345 19.7531 21.4407 22.0531 21.4407 24.4406V33.4375H15.7907V15.2281Z" fill="white"/>
</g>
<defs>
<clipPath id="clip0_454_1174">
<rect width="40" height="40" fill="white"/>
</clipPath>
</defs>
</svg>
